<mxfile host="app.diagrams.net" modified="2022-08-27T08:04:57.699Z" agent="5.0 (Windows NT 10.0; Win64; x64) AppleWebKit/537.36 (KHTML, like Gecko) Chrome/104.0.0.0 Safari/537.36" etag="VDplGqIQmqprxxyvF6SZ" version="20.2.7" type="github">
  <diagram id="h7utoxVuij7syfYjLaKt" name="第 1 页">
    <mxGraphModel dx="538" dy="333" grid="1" gridSize="10" guides="1" tooltips="1" connect="1" arrows="1" fold="1" page="1" pageScale="1" pageWidth="827" pageHeight="1169" math="0" shadow="0">
      <root>
        <mxCell id="0" />
        <mxCell id="1" parent="0" />
        <mxCell id="-yrkJEqGJfYsVpdx_Bv7-20" style="edgeStyle=orthogonalEdgeStyle;rounded=0;orthogonalLoop=1;jettySize=auto;html=1;entryX=0;entryY=0.5;entryDx=0;entryDy=0;" edge="1" parent="1" source="-yrkJEqGJfYsVpdx_Bv7-9" target="-yrkJEqGJfYsVpdx_Bv7-10">
          <mxGeometry relative="1" as="geometry" />
        </mxCell>
        <mxCell id="-yrkJEqGJfYsVpdx_Bv7-9" value="2" style="ellipse;whiteSpace=wrap;html=1;aspect=fixed;fillColor=#B9E0A5;" vertex="1" parent="1">
          <mxGeometry x="180" y="240" width="30" height="30" as="geometry" />
        </mxCell>
        <mxCell id="-yrkJEqGJfYsVpdx_Bv7-23" style="edgeStyle=orthogonalEdgeStyle;rounded=0;orthogonalLoop=1;jettySize=auto;html=1;entryX=0;entryY=0.5;entryDx=0;entryDy=0;" edge="1" parent="1" source="-yrkJEqGJfYsVpdx_Bv7-10" target="-yrkJEqGJfYsVpdx_Bv7-11">
          <mxGeometry relative="1" as="geometry" />
        </mxCell>
        <mxCell id="-yrkJEqGJfYsVpdx_Bv7-10" value="1" style="ellipse;whiteSpace=wrap;html=1;aspect=fixed;" vertex="1" parent="1">
          <mxGeometry x="250" y="240" width="30" height="30" as="geometry" />
        </mxCell>
        <mxCell id="-yrkJEqGJfYsVpdx_Bv7-24" style="edgeStyle=orthogonalEdgeStyle;rounded=0;orthogonalLoop=1;jettySize=auto;html=1;entryX=0;entryY=0.5;entryDx=0;entryDy=0;" edge="1" parent="1" source="-yrkJEqGJfYsVpdx_Bv7-11" target="-yrkJEqGJfYsVpdx_Bv7-12">
          <mxGeometry relative="1" as="geometry" />
        </mxCell>
        <mxCell id="-yrkJEqGJfYsVpdx_Bv7-11" value="3" style="ellipse;whiteSpace=wrap;html=1;aspect=fixed;fillColor=#B9E0A5;" vertex="1" parent="1">
          <mxGeometry x="310" y="240" width="30" height="30" as="geometry" />
        </mxCell>
        <mxCell id="-yrkJEqGJfYsVpdx_Bv7-25" style="edgeStyle=orthogonalEdgeStyle;rounded=0;orthogonalLoop=1;jettySize=auto;html=1;entryX=0;entryY=0.5;entryDx=0;entryDy=0;" edge="1" parent="1" source="-yrkJEqGJfYsVpdx_Bv7-12" target="-yrkJEqGJfYsVpdx_Bv7-13">
          <mxGeometry relative="1" as="geometry" />
        </mxCell>
        <mxCell id="-yrkJEqGJfYsVpdx_Bv7-12" value="5" style="ellipse;whiteSpace=wrap;html=1;aspect=fixed;" vertex="1" parent="1">
          <mxGeometry x="370" y="240" width="30" height="30" as="geometry" />
        </mxCell>
        <mxCell id="-yrkJEqGJfYsVpdx_Bv7-26" style="edgeStyle=orthogonalEdgeStyle;rounded=0;orthogonalLoop=1;jettySize=auto;html=1;entryX=0;entryY=0.5;entryDx=0;entryDy=0;" edge="1" parent="1" source="-yrkJEqGJfYsVpdx_Bv7-13" target="-yrkJEqGJfYsVpdx_Bv7-14">
          <mxGeometry relative="1" as="geometry" />
        </mxCell>
        <mxCell id="-yrkJEqGJfYsVpdx_Bv7-13" value="6" style="ellipse;whiteSpace=wrap;html=1;aspect=fixed;fillColor=#B9E0A5;" vertex="1" parent="1">
          <mxGeometry x="430" y="240" width="30" height="30" as="geometry" />
        </mxCell>
        <mxCell id="-yrkJEqGJfYsVpdx_Bv7-27" style="edgeStyle=orthogonalEdgeStyle;rounded=0;orthogonalLoop=1;jettySize=auto;html=1;entryX=0;entryY=0.5;entryDx=0;entryDy=0;" edge="1" parent="1" source="-yrkJEqGJfYsVpdx_Bv7-14" target="-yrkJEqGJfYsVpdx_Bv7-17">
          <mxGeometry relative="1" as="geometry" />
        </mxCell>
        <mxCell id="-yrkJEqGJfYsVpdx_Bv7-14" value="4" style="ellipse;whiteSpace=wrap;html=1;aspect=fixed;" vertex="1" parent="1">
          <mxGeometry x="490" y="240" width="30" height="30" as="geometry" />
        </mxCell>
        <mxCell id="-yrkJEqGJfYsVpdx_Bv7-17" value="7" style="ellipse;whiteSpace=wrap;html=1;aspect=fixed;fillColor=#B9E0A5;" vertex="1" parent="1">
          <mxGeometry x="570" y="240" width="30" height="30" as="geometry" />
        </mxCell>
        <mxCell id="-yrkJEqGJfYsVpdx_Bv7-28" style="edgeStyle=orthogonalEdgeStyle;rounded=0;orthogonalLoop=1;jettySize=auto;html=1;entryX=0;entryY=0.5;entryDx=0;entryDy=0;" edge="1" parent="1" source="-yrkJEqGJfYsVpdx_Bv7-29" target="-yrkJEqGJfYsVpdx_Bv7-31">
          <mxGeometry relative="1" as="geometry" />
        </mxCell>
        <mxCell id="-yrkJEqGJfYsVpdx_Bv7-29" value="2" style="ellipse;whiteSpace=wrap;html=1;aspect=fixed;fillColor=#B9E0A5;" vertex="1" parent="1">
          <mxGeometry x="180" y="300" width="30" height="30" as="geometry" />
        </mxCell>
        <mxCell id="-yrkJEqGJfYsVpdx_Bv7-30" style="edgeStyle=orthogonalEdgeStyle;rounded=0;orthogonalLoop=1;jettySize=auto;html=1;entryX=0;entryY=0.5;entryDx=0;entryDy=0;" edge="1" parent="1" source="-yrkJEqGJfYsVpdx_Bv7-31" target="-yrkJEqGJfYsVpdx_Bv7-33">
          <mxGeometry relative="1" as="geometry" />
        </mxCell>
        <mxCell id="-yrkJEqGJfYsVpdx_Bv7-31" value="3" style="ellipse;whiteSpace=wrap;html=1;aspect=fixed;fillColor=#B9E0A5;" vertex="1" parent="1">
          <mxGeometry x="250" y="300" width="30" height="30" as="geometry" />
        </mxCell>
        <mxCell id="-yrkJEqGJfYsVpdx_Bv7-32" style="edgeStyle=orthogonalEdgeStyle;rounded=0;orthogonalLoop=1;jettySize=auto;html=1;entryX=0;entryY=0.5;entryDx=0;entryDy=0;" edge="1" parent="1" source="-yrkJEqGJfYsVpdx_Bv7-33" target="-yrkJEqGJfYsVpdx_Bv7-35">
          <mxGeometry relative="1" as="geometry" />
        </mxCell>
        <mxCell id="-yrkJEqGJfYsVpdx_Bv7-33" value="1" style="ellipse;whiteSpace=wrap;html=1;aspect=fixed;fillColor=#FFFFFF;" vertex="1" parent="1">
          <mxGeometry x="310" y="300" width="30" height="30" as="geometry" />
        </mxCell>
        <mxCell id="-yrkJEqGJfYsVpdx_Bv7-34" style="edgeStyle=orthogonalEdgeStyle;rounded=0;orthogonalLoop=1;jettySize=auto;html=1;entryX=0;entryY=0.5;entryDx=0;entryDy=0;" edge="1" parent="1" source="-yrkJEqGJfYsVpdx_Bv7-35" target="-yrkJEqGJfYsVpdx_Bv7-37">
          <mxGeometry relative="1" as="geometry" />
        </mxCell>
        <mxCell id="-yrkJEqGJfYsVpdx_Bv7-35" value="5" style="ellipse;whiteSpace=wrap;html=1;aspect=fixed;" vertex="1" parent="1">
          <mxGeometry x="370" y="300" width="30" height="30" as="geometry" />
        </mxCell>
        <mxCell id="-yrkJEqGJfYsVpdx_Bv7-36" style="edgeStyle=orthogonalEdgeStyle;rounded=0;orthogonalLoop=1;jettySize=auto;html=1;entryX=0;entryY=0.5;entryDx=0;entryDy=0;" edge="1" parent="1" source="-yrkJEqGJfYsVpdx_Bv7-37" target="-yrkJEqGJfYsVpdx_Bv7-39">
          <mxGeometry relative="1" as="geometry" />
        </mxCell>
        <mxCell id="-yrkJEqGJfYsVpdx_Bv7-37" value="6" style="ellipse;whiteSpace=wrap;html=1;aspect=fixed;fillColor=#B9E0A5;" vertex="1" parent="1">
          <mxGeometry x="430" y="300" width="30" height="30" as="geometry" />
        </mxCell>
        <mxCell id="-yrkJEqGJfYsVpdx_Bv7-38" style="edgeStyle=orthogonalEdgeStyle;rounded=0;orthogonalLoop=1;jettySize=auto;html=1;entryX=0;entryY=0.5;entryDx=0;entryDy=0;" edge="1" parent="1" source="-yrkJEqGJfYsVpdx_Bv7-39" target="-yrkJEqGJfYsVpdx_Bv7-40">
          <mxGeometry relative="1" as="geometry" />
        </mxCell>
        <mxCell id="-yrkJEqGJfYsVpdx_Bv7-39" value="4" style="ellipse;whiteSpace=wrap;html=1;aspect=fixed;" vertex="1" parent="1">
          <mxGeometry x="490" y="300" width="30" height="30" as="geometry" />
        </mxCell>
        <mxCell id="-yrkJEqGJfYsVpdx_Bv7-40" value="7" style="ellipse;whiteSpace=wrap;html=1;aspect=fixed;fillColor=#B9E0A5;" vertex="1" parent="1">
          <mxGeometry x="570" y="300" width="30" height="30" as="geometry" />
        </mxCell>
        <mxCell id="-yrkJEqGJfYsVpdx_Bv7-41" style="edgeStyle=orthogonalEdgeStyle;rounded=0;orthogonalLoop=1;jettySize=auto;html=1;entryX=0;entryY=0.5;entryDx=0;entryDy=0;" edge="1" parent="1" source="-yrkJEqGJfYsVpdx_Bv7-42" target="-yrkJEqGJfYsVpdx_Bv7-44">
          <mxGeometry relative="1" as="geometry" />
        </mxCell>
        <mxCell id="-yrkJEqGJfYsVpdx_Bv7-42" value="2" style="ellipse;whiteSpace=wrap;html=1;aspect=fixed;fillColor=#B9E0A5;" vertex="1" parent="1">
          <mxGeometry x="180" y="360" width="30" height="30" as="geometry" />
        </mxCell>
        <mxCell id="-yrkJEqGJfYsVpdx_Bv7-43" style="edgeStyle=orthogonalEdgeStyle;rounded=0;orthogonalLoop=1;jettySize=auto;html=1;entryX=0;entryY=0.5;entryDx=0;entryDy=0;" edge="1" parent="1" source="-yrkJEqGJfYsVpdx_Bv7-44" target="-yrkJEqGJfYsVpdx_Bv7-46">
          <mxGeometry relative="1" as="geometry" />
        </mxCell>
        <mxCell id="-yrkJEqGJfYsVpdx_Bv7-44" value="3" style="ellipse;whiteSpace=wrap;html=1;aspect=fixed;fillColor=#B9E0A5;" vertex="1" parent="1">
          <mxGeometry x="250" y="360" width="30" height="30" as="geometry" />
        </mxCell>
        <mxCell id="-yrkJEqGJfYsVpdx_Bv7-45" style="edgeStyle=orthogonalEdgeStyle;rounded=0;orthogonalLoop=1;jettySize=auto;html=1;entryX=0;entryY=0.5;entryDx=0;entryDy=0;" edge="1" parent="1" source="-yrkJEqGJfYsVpdx_Bv7-46" target="-yrkJEqGJfYsVpdx_Bv7-48">
          <mxGeometry relative="1" as="geometry" />
        </mxCell>
        <mxCell id="-yrkJEqGJfYsVpdx_Bv7-46" value="1" style="ellipse;whiteSpace=wrap;html=1;aspect=fixed;fillColor=#FFFFFF;" vertex="1" parent="1">
          <mxGeometry x="310" y="360" width="30" height="30" as="geometry" />
        </mxCell>
        <mxCell id="-yrkJEqGJfYsVpdx_Bv7-47" style="edgeStyle=orthogonalEdgeStyle;rounded=0;orthogonalLoop=1;jettySize=auto;html=1;entryX=0;entryY=0.5;entryDx=0;entryDy=0;" edge="1" parent="1" source="-yrkJEqGJfYsVpdx_Bv7-48" target="-yrkJEqGJfYsVpdx_Bv7-50">
          <mxGeometry relative="1" as="geometry" />
        </mxCell>
        <mxCell id="-yrkJEqGJfYsVpdx_Bv7-48" value="6" style="ellipse;whiteSpace=wrap;html=1;aspect=fixed;fillColor=#B9E0A5;" vertex="1" parent="1">
          <mxGeometry x="370" y="360" width="30" height="30" as="geometry" />
        </mxCell>
        <mxCell id="-yrkJEqGJfYsVpdx_Bv7-49" style="edgeStyle=orthogonalEdgeStyle;rounded=0;orthogonalLoop=1;jettySize=auto;html=1;entryX=0;entryY=0.5;entryDx=0;entryDy=0;" edge="1" parent="1" source="-yrkJEqGJfYsVpdx_Bv7-50" target="-yrkJEqGJfYsVpdx_Bv7-52">
          <mxGeometry relative="1" as="geometry" />
        </mxCell>
        <mxCell id="-yrkJEqGJfYsVpdx_Bv7-50" value="5" style="ellipse;whiteSpace=wrap;html=1;aspect=fixed;fillColor=#FFFFFF;" vertex="1" parent="1">
          <mxGeometry x="430" y="360" width="30" height="30" as="geometry" />
        </mxCell>
        <mxCell id="-yrkJEqGJfYsVpdx_Bv7-51" style="edgeStyle=orthogonalEdgeStyle;rounded=0;orthogonalLoop=1;jettySize=auto;html=1;entryX=0;entryY=0.5;entryDx=0;entryDy=0;" edge="1" parent="1" source="-yrkJEqGJfYsVpdx_Bv7-52" target="-yrkJEqGJfYsVpdx_Bv7-53">
          <mxGeometry relative="1" as="geometry" />
        </mxCell>
        <mxCell id="-yrkJEqGJfYsVpdx_Bv7-52" value="4" style="ellipse;whiteSpace=wrap;html=1;aspect=fixed;" vertex="1" parent="1">
          <mxGeometry x="490" y="360" width="30" height="30" as="geometry" />
        </mxCell>
        <mxCell id="-yrkJEqGJfYsVpdx_Bv7-53" value="7" style="ellipse;whiteSpace=wrap;html=1;aspect=fixed;fillColor=#B9E0A5;" vertex="1" parent="1">
          <mxGeometry x="570" y="360" width="30" height="30" as="geometry" />
        </mxCell>
        <mxCell id="-yrkJEqGJfYsVpdx_Bv7-55" style="edgeStyle=orthogonalEdgeStyle;rounded=0;orthogonalLoop=1;jettySize=auto;html=1;entryX=0;entryY=0.5;entryDx=0;entryDy=0;" edge="1" parent="1" source="-yrkJEqGJfYsVpdx_Bv7-56" target="-yrkJEqGJfYsVpdx_Bv7-58">
          <mxGeometry relative="1" as="geometry" />
        </mxCell>
        <mxCell id="-yrkJEqGJfYsVpdx_Bv7-56" value="2" style="ellipse;whiteSpace=wrap;html=1;aspect=fixed;fillColor=#B9E0A5;" vertex="1" parent="1">
          <mxGeometry x="180" y="420" width="30" height="30" as="geometry" />
        </mxCell>
        <mxCell id="-yrkJEqGJfYsVpdx_Bv7-57" style="edgeStyle=orthogonalEdgeStyle;rounded=0;orthogonalLoop=1;jettySize=auto;html=1;entryX=0;entryY=0.5;entryDx=0;entryDy=0;" edge="1" parent="1" source="-yrkJEqGJfYsVpdx_Bv7-58" target="-yrkJEqGJfYsVpdx_Bv7-60">
          <mxGeometry relative="1" as="geometry" />
        </mxCell>
        <mxCell id="-yrkJEqGJfYsVpdx_Bv7-58" value="3" style="ellipse;whiteSpace=wrap;html=1;aspect=fixed;fillColor=#B9E0A5;" vertex="1" parent="1">
          <mxGeometry x="250" y="420" width="30" height="30" as="geometry" />
        </mxCell>
        <mxCell id="-yrkJEqGJfYsVpdx_Bv7-59" style="edgeStyle=orthogonalEdgeStyle;rounded=0;orthogonalLoop=1;jettySize=auto;html=1;entryX=0;entryY=0.5;entryDx=0;entryDy=0;" edge="1" parent="1" source="-yrkJEqGJfYsVpdx_Bv7-60" target="-yrkJEqGJfYsVpdx_Bv7-62">
          <mxGeometry relative="1" as="geometry" />
        </mxCell>
        <mxCell id="-yrkJEqGJfYsVpdx_Bv7-60" value="1" style="ellipse;whiteSpace=wrap;html=1;aspect=fixed;fillColor=#FFFFFF;" vertex="1" parent="1">
          <mxGeometry x="310" y="420" width="30" height="30" as="geometry" />
        </mxCell>
        <mxCell id="-yrkJEqGJfYsVpdx_Bv7-61" style="edgeStyle=orthogonalEdgeStyle;rounded=0;orthogonalLoop=1;jettySize=auto;html=1;entryX=0;entryY=0.5;entryDx=0;entryDy=0;" edge="1" parent="1" source="-yrkJEqGJfYsVpdx_Bv7-62" target="-yrkJEqGJfYsVpdx_Bv7-64">
          <mxGeometry relative="1" as="geometry" />
        </mxCell>
        <mxCell id="-yrkJEqGJfYsVpdx_Bv7-62" value="6" style="ellipse;whiteSpace=wrap;html=1;aspect=fixed;fillColor=#B9E0A5;" vertex="1" parent="1">
          <mxGeometry x="370" y="420" width="30" height="30" as="geometry" />
        </mxCell>
        <mxCell id="-yrkJEqGJfYsVpdx_Bv7-63" style="edgeStyle=orthogonalEdgeStyle;rounded=0;orthogonalLoop=1;jettySize=auto;html=1;entryX=0;entryY=0.5;entryDx=0;entryDy=0;" edge="1" parent="1" source="-yrkJEqGJfYsVpdx_Bv7-64" target="-yrkJEqGJfYsVpdx_Bv7-66">
          <mxGeometry relative="1" as="geometry" />
        </mxCell>
        <mxCell id="-yrkJEqGJfYsVpdx_Bv7-64" value="5" style="ellipse;whiteSpace=wrap;html=1;aspect=fixed;fillColor=#FFFFFF;" vertex="1" parent="1">
          <mxGeometry x="430" y="420" width="30" height="30" as="geometry" />
        </mxCell>
        <mxCell id="-yrkJEqGJfYsVpdx_Bv7-65" style="edgeStyle=orthogonalEdgeStyle;rounded=0;orthogonalLoop=1;jettySize=auto;html=1;entryX=0;entryY=0.5;entryDx=0;entryDy=0;" edge="1" parent="1" source="-yrkJEqGJfYsVpdx_Bv7-66" target="-yrkJEqGJfYsVpdx_Bv7-67">
          <mxGeometry relative="1" as="geometry" />
        </mxCell>
        <mxCell id="-yrkJEqGJfYsVpdx_Bv7-66" value="7" style="ellipse;whiteSpace=wrap;html=1;aspect=fixed;fillColor=#B9E0A5;" vertex="1" parent="1">
          <mxGeometry x="490" y="420" width="30" height="30" as="geometry" />
        </mxCell>
        <mxCell id="-yrkJEqGJfYsVpdx_Bv7-67" value="4" style="ellipse;whiteSpace=wrap;html=1;aspect=fixed;fillColor=#FFFFFF;" vertex="1" parent="1">
          <mxGeometry x="570" y="420" width="30" height="30" as="geometry" />
        </mxCell>
      </root>
    </mxGraphModel>
  </diagram>
</mxfile>
